<svg xmlns="http://www.w3.org/2000/svg" width="32" height="32" viewBox="0 0 32 32">
  <rect width="32" height="32" rx="2" fill="#080604"/>
  <g transform="translate(2.881, 26.481) scale(0.02388, -0.02388)">
    <path d="M955 869Q949 878 940 878Q924 878 909 852L749 576Q738 556 715.5 542.0Q693 528 674 528H338Q318 528 295.5 514.0Q273 500 262 480L12 48Q5 35 5 24Q5 0 33 0H705Q724 0 746.5 14.0Q769 28 780 48L1082 570Q1094 591 1094 616Q1094 633 1088 643ZM472 96Q461 76 438.5 62.0Q416 48 396 48Q369 48 369 72Q369 83 376 96L570 432Q582 452 604.0 466.0Q626 480 646 480Q673 480 673 456Q673 445 666 432Z" fill="#b32e6b"/>
  </g>
</svg>
